<svg width="36" height="36" viewBox="0 0 36 36" fill="none" xmlns="http://www.w3.org/2000/svg">
<path d="M20.4559 0.167993C16.1496 -0.424373 11.7745 0.561324 8.13833 2.94307C4.50216 5.32483 1.85053 8.94177 0.673073 13.126C-0.504383 17.3103 -0.128144 21.7793 1.73232 25.7078C3.59278 29.6363 6.81181 32.759 10.795 34.4993C10.6873 33.1168 10.7862 31.7259 11.0884 30.3726C11.4213 28.8626 13.4208 20.5407 13.4208 20.5407C13.0226 19.6482 12.8237 18.6798 12.8377 17.7026C12.8377 15.03 14.38 13.0359 16.2985 13.0359C16.6432 13.0309 16.9849 13.1002 17.3004 13.239C17.6159 13.3778 17.8978 13.583 18.1269 13.8404C18.3561 14.0979 18.5271 14.4018 18.6284 14.7312C18.7296 15.0607 18.7587 15.4082 18.7137 15.7499C18.7137 17.3696 17.6735 19.8208 17.13 22.1209C17.0226 22.5427 17.0158 22.9838 17.1101 23.4088C17.2044 23.8337 17.3973 24.2305 17.6731 24.5673C17.9489 24.904 18.2999 25.1713 18.698 25.3475C19.096 25.5237 19.5298 25.6039 19.9645 25.5817C23.3804 25.5817 25.6696 21.2066 25.6696 16.0415C25.6696 12.0821 23.0475 9.11616 18.2134 9.11616C17.0569 9.07122 15.9033 9.2618 14.8226 9.67633C13.742 10.0909 12.7569 10.7207 11.9271 11.5276C11.0973 12.3345 10.4402 13.3016 9.99562 14.3702C9.55103 15.4388 9.32827 16.5866 9.34084 17.744C9.28932 19.0278 9.70349 20.2869 10.5071 21.2894C10.6572 21.4015 10.7669 21.5594 10.8194 21.7392C10.872 21.9191 10.8647 22.1111 10.7986 22.2865C10.7158 22.6176 10.5071 23.4077 10.4243 23.6974C10.4071 23.7957 10.367 23.8885 10.3073 23.9685C10.2477 24.0484 10.1701 24.1133 10.0808 24.1577C9.99146 24.2022 9.89297 24.2251 9.79321 24.2245C9.69345 24.224 9.59522 24.2 9.50642 24.1546C7.01562 23.1575 5.8422 20.4166 5.8422 17.2869C5.8422 12.1631 10.1327 6.02965 18.7173 6.02965C25.5491 6.02965 30.0915 11.0275 30.0915 16.3726C30.0915 23.4077 26.1736 28.697 20.3839 28.697C19.5186 28.7247 18.6602 28.5337 17.8883 28.1418C17.1163 27.7498 16.4557 27.1695 15.9674 26.4546C15.9674 26.4546 14.9272 30.6227 14.722 31.411C14.3032 32.7728 13.6852 34.0652 12.8881 35.2462C14.5492 35.7501 16.2751 36.0021 18.0101 35.9949C20.3741 35.9968 22.7153 35.5323 24.8997 34.6281C27.084 33.7239 29.0685 32.3977 30.7395 30.7255C32.4106 29.0533 33.7354 27.0678 34.6381 24.8829C35.5407 22.6979 36.0035 20.3564 36 17.9923C35.9977 13.646 34.423 9.4473 31.5666 6.17143C28.7102 2.89557 24.765 0.763814 20.4595 0.169793L20.4559 0.167993Z" fill="#BB0F23"/>
</svg>
